<svg xmlns="http://www.w3.org/2000/svg" viewBox="0 0 60 100" fill="none" stroke="currentColor" stroke-linecap="round" stroke-linejoin="round" preserveAspectRatio="xMidYMid meet">
    <path d="M20 6 H40 V88 H20 Z" stroke="currentColor" stroke-width="2.5" />
    <path d="M20 16 L16 20 L20 24 M40 16 L44 20 L40 24" stroke="currentColor" stroke-width="2" />
    <path d="M20 32 L16 36 L20 40 M40 32 L44 36 L40 40" stroke="currentColor" stroke-width="2" />
    <path d="M20 48 L16 52 L20 56 M40 48 L44 52 L40 56" stroke="currentColor" stroke-width="2" />
    <path d="M20 64 L16 68 L20 72 M40 64 L44 68 L40 72" stroke="currentColor" stroke-width="2" />
    <path d="M20 80 L16 84 L20 88 M40 80 L44 84 L40 88" stroke="currentColor" stroke-width="2" />
  </svg>
